HIERARCHY
ROOT ui
{
	 OFFSET 0 0 0
	 CHANNELS 3 XPosition YPosition Z Position
	 EndSite
	 {
	 OFFSET 0 -1 0
	 }
}
ROOT li
{
	 OFFSET 0 0 0
	 CHANNELS 3 XPosition YPosition Z Position
	 EndSite
	 {
	 OFFSET 0 -1 0
	 }
}
ROOT ul
{
	 OFFSET 0 0 0
	 CHANNELS 3 XPosition YPosition Z Position
	 EndSite
	 {
	 OFFSET 0 -1 0
	 }
}
ROOT ll
{
	 OFFSET 0 0 0
	 CHANNELS 3 XPosition YPosition Z Position
	 EndSite
	 {
	 OFFSET 0 -1 0
	 }
}
ROOT tt
{
	 OFFSET 0 0 0
	 CHANNELS 3 XPosition YPosition Z Position
	 EndSite
	 {
	 OFFSET 0 -1 0
	 }
}
ROOT tb
{
	 OFFSET 0 0 0
	 CHANNELS 3 XPosition YPosition Z Position
	 EndSite
	 {
	 OFFSET 0 -1 0
	 }
}
ROOT td
{
	 OFFSET 0 0 0
	 CHANNELS 3 XPosition YPosition Z Position
	 EndSite
	 {
	 OFFSET 0 -1 0
	 }
}
ROOT v
{
	 OFFSET 0 0 0
	 CHANNELS 3 XPosition YPosition Z Position
	 EndSite
	 {
	 OFFSET 0 -1 0
	 }
}
ROOT bn
{
	 OFFSET 0 0 0
	 CHANNELS 3 XPosition YPosition Z Position
	 EndSite
	 {
	 OFFSET 0 -1 0
	 }
}
MOTION
Frames: 29
Frame Time: 0.002
-0.006399814128875732	-7.205770015716553E-4	0		0.4623340759277344	-2.3614267578125	0		-1.100705810546875	-0.011420033454895019	0		-0.8241768188476563	-2.257072998046875	0		1.4465438232421874	-0.5217579345703125	0		3.105349609375	0.022082942962646485	0		4.5726806640625	0.15790020751953124	0		5.59120458984375	0.2619434814453125	0		-0.39506771850585937	5.84215478515625	0		
-0.016332252502441406	0.0015275570154190063	0		0.4613431396484375	-2.361325927734375	0		-1.101671142578125	-0.011302120208740234	0		-0.7892185668945313	-2.260527099609375	0		1.4514771728515625	-0.527761962890625	0		3.099353759765625	0.020234384536743165	0		4.56171826171875	0.15811451721191405	0		5.59051513671875	0.26202294921875	0		-0.3949851989746094	5.84124951171875	0		
0.04064029312133789	-0.0022916009426116944	0		0.4364265747070312	-2.35585302734375	0		-1.0985810546875	-0.007255228996276855	0		-0.8241327514648438	-2.25488232421875	0		1.4535616455078124	-0.5237273559570312	0		3.111712158203125	0.04109035873413086	0		4.57484033203125	0.1639404296875	0		5.5969189453125	0.2566253356933594	0		-0.39589352416992185	5.8413525390625	0		
-0.00929062557220459	-4.2482998967170716E-4	0		0.46547555541992186	-2.354242431640625	0		-1.0995340576171875	-0.007152070045471191	0		-0.785083984375	-2.253416015625	0		1.4577132568359374	-0.5167325439453125	0		3.106538330078125	0.02721205139160156	0		4.5738896484375	0.16398078918457032	0		5.589140625	0.26214065551757815	0		-0.39678176879882815	5.84144775390625	0		
0.03385886764526367	0.00296042799949646	0		0.4625096740722656	-2.35613232421875	0		-1.1004425048828126	-0.007056651115417481	0		-0.7880645751953125	-2.2562919921875	0		1.49469921875	-0.5232671508789063	0		3.12973828125	0.03387960815429687	0		4.56888818359375	0.15807771301269533	0		5.58849169921875	0.2621795654296875	0		-0.3986096496582031	5.84255126953125	0		
0.037935585021972654	-0.0020432350635528566	0		0.45756170654296874	-2.360997802734375	0		-1.0323740234375	-0.01306330108642578	0		-0.790964111328125	-2.258176025390625	0		1.4508397216796876	-0.5235257568359375	0		3.084916748046875	0.03561870574951172	0		4.568046875	0.15810307312011718	0		5.58788916015625	0.2622057800292969	0		-0.3993890075683594	5.842630859375	0		
-0.015852654457092285	-0.00313456392288208	0		0.4308240051269531	-2.35752294921875	0		-1.1061121826171876	-0.010825942993164063	0		-0.7917515869140626	-2.25810009765625	0		1.486970947265625	-0.5300606689453125	0		3.09913623046875	0.0344148063659668	0		4.55728662109375	0.15827998352050782	0		5.59151025390625	0.2447571716308594	0		-0.3981211853027344	5.8406708984375	0		
0.036499523162841795	-0.0019172730445861817	0		0.45810693359375	-2.358912841796875	0		-1.0908984375	-0.01800822639465332	0		-0.82839599609375	-2.2544609375	0		1.4573438720703125	-0.5265565795898437	0		3.1224287109375	0.03206056594848633	0		4.56867724609375	0.16210029602050782	0		5.59396142578125	0.25675830078125	0		-0.383591552734375	5.8494951171875	0		
0.04490551376342773	-0.0030085709095001223	0		0.4205741271972656	-2.35427783203125	0		-1.0951888427734375	1.1625400185585022E-4	0		-0.8120299072265625	-2.25667041015625	0		1.459808837890625	-0.5235675048828125	0		3.092014892578125	0.04255635452270508	0		4.57013330078125	0.1640736083984375	0		5.59061669921875	0.24475250244140626	0		-0.4002339172363281	5.841806640625	0		
0.03052097511291504	0.003258734941482544	0		0.4590482177734375	-2.3558564453125	0		-1.1037808837890626	-0.006698931217193603	0		-0.827468505859375	-2.25237841796875	0		1.4503707275390625	-0.5203933715820312	0		3.097405517578125	0.03447706604003906	0		4.56555859375	0.1581384735107422	0		5.5861064453125	0.26220025634765626	0		-0.40164166259765627	5.8428720703125	0		
-0.01885190773010254	0.005079156875610351	0		0.4306339721679687	-2.355374267578125	0		-1.1082392578125	-0.01058318042755127	0		-0.7939691772460937	-2.2578701171875	0		1.484822998046875	-0.5299224243164062	0		3.10189892578125	0.027409370422363282	0		4.5651650390625	0.1581352996826172	0		5.57940625	0.262427001953125	0		-0.40198028564453125	5.8429169921875	0		
-0.012381583213806153	-0.007993435859680176	0		0.45420733642578126	-2.360722900390625	0		-1.1085611572265626	-0.010535676002502442	0		-0.8302598876953124	-2.25425244140625	0		1.444533203125	-0.5272625732421875	0		3.08659521484375	0.028655982971191405	0		4.5648447265625	0.15812936401367186	0		5.58975927734375	0.24469059753417968	0		-0.4012630920410156	5.84194189453125	0		
-0.023482589721679686	0.002214785099029541	0		0.4040578002929687	-2.351897216796875	0		-1.0929365234375	-0.01774549102783203	0		-0.8305422973632812	-2.2542109375	0		1.4552811279296876	-0.5264171752929687	0		3.096427978515625	0.03450162124633789	0		4.56177587890625	0.17016783142089845	0		5.58193212890625	0.2761014709472656	0		-0.4014711303710938	5.8419794921875	0		
-0.014726741790771485	1.0397399961948395E-4	0		0.45980264282226563	-2.35376123046875	0		-1.1049708251953125	-0.006513591766357422	0		-0.8246626586914062	-2.247267822265625	0		1.4522252197265626	-0.516351318359375	0		3.11610302734375	0.02718825149536133	0		4.5684697265625	0.16404855346679686	0		5.58525537109375	0.2620964050292969	0		-0.4016302185058594	5.842015625	0		
-0.01489246654510498	1.3578400015830993E-4	0		0.45758502197265627	-2.355701416015625	0		-1.1051365966796876	-0.006472411155700683	0		-0.7929794311523437	-2.255738525390625	0		1.4899544677734375	-0.5229375610351562	0		3.11412939453125	0.03922352981567383	0		4.56341796875	0.17111984252929688	0		5.58513671875	0.26206948852539064	0		-0.4017457275390625	5.84205078125	0		
0.02904385757446289	0.0034654810428619387	0		0.45539614868164063	-2.358640625	0		-1.1093218994140626	-0.010366613388061524	0		-0.8310989990234375	-2.25409326171875	0		1.4488653564453124	-0.5202632446289063	0		3.11092822265625	0.03427887725830078	0		4.574072265625	0.1569409942626953	0		5.58504931640625	0.2620474853515625	0		-0.4028036193847656	5.84310205078125	0		
-0.020012422561645506	0.005281556129455567	0		0.45326776123046875	-2.360577880859375	0		-1.1094005126953126	-0.010324110984802246	0		-0.7623314819335938	-2.263153564453125	0		1.4836346435546874	-0.5297982788085938	0		3.080869873046875	0.03576778411865234	0		4.55810888671875	0.16419429016113282	0		5.58915771484375	0.24456936645507812	0		-0.40185321044921873	5.84212353515625	0		
0.03080097770690918	-0.004496121883392334	0		0.43915255737304687	-2.364321044921875	0		-1.10537353515625	-0.006344844818115234	0		-0.829215576171875	-2.25204345703125	0		1.454646240234375	-0.52631005859375	0		3.11978076171875	0.0321590461730957	0		4.56116943359375	0.1701490478515625	0		5.5920634765625	0.25656167602539065	0		-0.3725642395019531	5.8596962890625	0		
-0.009015009880065919	0.0071789751052856446	0		0.43539675903320313	-2.348224609375	0		-1.089484375	-0.01355518627166748	0		-0.7892000122070313	-2.25064013671875	0		1.460757080078125	-0.5193787841796875	0		3.08391650390625	0.04075081253051758	0		4.57117236328125	0.16999742126464842	0		5.587900390625	0.274029052734375	0		-0.40180755615234376	5.8422021484375	0		
0.03388945770263672	-0.0014690929651260376	0		0.45730645751953125	-2.35553955078125	0		-1.1053326416015625	-0.006255698204040527	0		-0.827170166015625	-2.24998974609375	0		1.4487774658203125	-0.5201567993164062	0		3.10074462890625	0.027501398086547852	0		4.56402001953125	0.15812309265136718	0		5.58915966796875	0.2445794677734375	0		-0.401736328125	5.84224267578125	0		
-0.01010387134552002	-0.004726724147796631	0		0.4553117980957031	-2.35847119140625	0		-1.1093311767578125	-0.010147285461425782	0		-0.7952326049804688	-2.257458251953125	0		1.443728515625	-0.527044921875	0		3.08582763671875	0.028763790130615235	0		4.5591982421875	0.1652173614501953	0		5.58504052734375	0.26206134033203127	0		-0.4016417236328125	5.842283203125	0		
-0.02390749740600586	0.0025337579250335695	0		0.42740353393554686	-2.356988037109375	0		-1.10924853515625	-0.010104991912841798	0		-0.831107421875	-2.253841796875	0		1.443808837890625	-0.5270139770507812	0		3.130872802734375	0.026067813873291015	0		4.56904052734375	0.15007643127441406	0		5.58284521484375	0.24486900329589845	0		-0.40153314208984375	5.842322265625	0		
-0.014849329948425293	4.2580899596214296E-4	0		0.45546627807617185	-2.35840185546875	0		-1.10509375	-0.006129561901092529	0		-0.8310247192382813	-2.253802734375	0		1.4469617919921876	-0.5230322875976563	0		3.090225341796875	0.04274559783935547	0		4.55835791015625	0.16426893615722657	0		5.589328125	0.24464540100097656	0		-0.3862774353027344	5.8511181640625	0		
0.03422223663330078	-0.001324787974357605	0		0.4336834411621094	-2.350018798828125	0		-1.105	-0.0060925850868225094	0		-0.82687451171875	-2.249831298828125	0		1.452165283203125	-0.5160843505859375	0		3.101077880859375	0.027595069885253905	0		4.5584521484375	0.16428785705566407	0		5.58523046875	0.2621368408203125	0		-0.40130706787109377	5.84239404296875	0		
-0.01466411781311035	4.89877998828888E-4	0		0.45768563842773435	-2.355373046875	0		-1.0319339599609374	-0.008227602005004882	0		-0.7928733520507812	-2.25534228515625	0		1.449191650390625	-0.520009033203125	0		3.11435986328125	0.0394079704284668	0		4.564447265625	0.15821136474609376	0		5.58529541015625	0.2621651306152344	0		-0.40120062255859373	5.84242578125	0		
-0.014581026077270508	5.16871988773346E-4	0		0.42976763916015626	-2.354898681640625	0		-1.1088890380859375	-0.009965493202209472	0		-0.7948265380859375	-2.257281494140625	0		1.478238037109375	-0.522448974609375	0		3.096365234375	0.03471754455566406	0		4.5686259765625	0.16416444396972657	0		5.5853544921875	0.26219287109375	0		-0.40208978271484375	5.84346923828125	0		
-0.018558837890625	-0.002395888090133667	0		0.4537509460449219	-2.360260009765625	0		-1.1088193359375	-0.009941157341003417	0		-0.8307073364257812	-2.253681396484375	0		1.4442313232421875	-0.5268832397460937	0		3.09643505859375	0.03473603057861328	0		4.5646005859375	0.15824568176269532	0		5.58956884765625	0.24475509643554688	0		-0.3858859252929687	5.8512353515625	0		
-0.014456969261169433	5.577939748764038E-4	0		0.4059696960449219	-2.34947509765625	0		-1.1047015380859375	-0.005986741065979004	0		-0.8286229858398437	-2.251695068359375	0		1.4552998046875	-0.5260425415039063	0		3.1054560546875	0.03260783386230469	0		4.56671875	0.16222764587402344	0		5.59547265625	0.2687742004394531	0		-0.38484307861328126	5.85023828125	0		
0.043543704986572264	-0.002357553005218506	0		0.4708407897949219	-2.36050146484375	0		-1.0928389892578125	-0.017164134979248048	0		-0.8136493530273438	-2.25592138671875	0		1.461451171875	-0.5191267700195312	0		3.099625244140625	0.04071518707275391	0		4.5787734375	0.1630473175048828	0		5.5896357421875	0.24479916381835937	0		-0.39994369506835936	5.84149267578125	0		
